<?xml version="1.0" encoding="UTF-8" standalone="no"?>
<svg
   xmlns:dc="http://purl.org/dc/elements/1.1/"
   xmlns:cc="http://creativecommons.org/ns#"
   xmlns:rdf="http://www.w3.org/1999/02/22-rdf-syntax-ns#"
   xmlns:svg="http://www.w3.org/2000/svg"
   xmlns="http://www.w3.org/2000/svg"
   xmlns:sodipodi="http://sodipodi.sourceforge.net/DTD/sodipodi-0.dtd"
   xmlns:inkscape="http://www.inkscape.org/namespaces/inkscape"
   version="1.1"
   id="svg2"
   xml:space="preserve"
   width="227.54668"
   height="227.54668"
   viewBox="0 0 227.54668 227.54668"
   sodipodi:docname="spotify-seeklogo.com.eps"><metadata
     id="metadata8"><rdf:RDF><cc:Work
         rdf:about=""><dc:format>image/svg+xml</dc:format><dc:type
           rdf:resource="http://purl.org/dc/dcmitype/StillImage" /></cc:Work></rdf:RDF></metadata><defs
     id="defs6" /><sodipodi:namedview
     pagecolor="#ffffff"
     bordercolor="#666666"
     borderopacity="1"
     objecttolerance="10"
     gridtolerance="10"
     guidetolerance="10"
     inkscape:pageopacity="0"
     inkscape:pageshadow="2"
     inkscape:window-width="640"
     inkscape:window-height="480"
     id="namedview4" /><g
     id="g10"
     inkscape:groupmode="layer"
     inkscape:label="ink_ext_XXXXXX"
     transform="matrix(1.3333333,0,0,-1.3333333,0,227.54667)"><g
       id="g12"
       transform="scale(0.1)"><path
         d="m 1400.89,932.141 c -11.47,0 -23.46,2.672 -34.4,7.871 -202.1,101.048 -419.677,152.118 -647.248,152.118 -118.254,0 -235.972,-14.67 -350.488,-42.8 -42.262,-10.4 -84.395,15.2 -94.789,56.8 -10.399,42.25 15.066,92.65 56.66,103.18 127.184,31.19 257.297,47.33 388.617,47.33 251.438,0 493.138,-56.8 716.578,-168.25 38.92,-19.2 54.66,-66.13 35.32,-105.183 -13.46,-27.066 -41.06,-51.066 -70.25,-51.066 z m -45.33,-257.7 c -12,-23.461 -35.99,-61.461 -60.4,-61.461 -10.93,0 -21.32,2.54 -31.72,7.739 -169.32,88.121 -352.092,132.383 -544.198,132.383 -105.722,0 -210.508,-13.602 -311.961,-41.735 -36.527,-9.867 -73.996,11.473 -83.859,47.996 -9.863,36.934 11.469,98.926 47.859,108.789 113.055,30.664 230.242,46.399 347.961,46.399 210.906,0 421.278,-51.067 607.128,-147.985 33.85,-17.203 46.92,-58.261 29.19,-92.125 z M 1247.17,353.148 c -10.4,-19.328 -30.66,-30.257 -50.93,-30.257 -9.99,0 -19.33,2.129 -28.66,7.328 -136.51,74.929 -291.693,115.051 -448.338,115.051 -93.855,0 -187.047,-14 -275.566,-41.59 -31.196,-9.469 -63.992,7.73 -73.457,38.531 -9.332,30.66 7.867,96.25 38.527,106.25 100.52,30.66 204.774,46.789 310.496,46.789 176.512,0 351.428,-44.789 505.138,-129.719 28.53,-15.59 38.53,-83.711 22.79,-112.383 z M 852.957,1706.58 C 382.215,1706.58 0,1324.36 0,853.625 0,382.211 382.215,0 852.957,0 c 471.403,0 853.623,382.211 853.623,853.625 0,470.735 -382.22,852.955 -853.623,852.955 v 0"
         style="fill:#FFFFFF;fill-opacity:1;fill-rule:nonzero;stroke:none"
         id="path14" /></g></g></svg>
